<svg xmlns="http://www.w3.org/2000/svg" id="emotionally-sensitive-female" viewBox="0 0 512 512">
  <defs>
    <linearGradient id="linear-gradient" x1="253.932" x2="253.932" y1="93.19" y2="231.947" gradientUnits="userSpaceOnUse">
      <stop offset="0" stop-color="#577fff"></stop>
      <stop offset=".075" stop-color="#677de7"></stop>
      <stop offset=".223" stop-color="#8378bc"></stop>
      <stop offset=".373" stop-color="#9b759a"></stop>
      <stop offset=".525" stop-color="#ad727f"></stop>
      <stop offset=".679" stop-color="#ba716b"></stop>
      <stop offset=".836" stop-color="#c16f60"></stop>
      <stop offset="1" stop-color="#c46f5c"></stop>
    </linearGradient>
    <clipPath id="clip-path">
      <rect width="429.12" height="285.18" x="41.44" y="152.803" fill="none"></rect>
    </clipPath>
  </defs>
  <rect width="429.12" height="285.18" x="41.44" y="152.803" fill="#ff7e84"></rect>
  <g clip-path="url(#clip-path)">
    <line x1="59.62" x2="183.46" y1="101.419" y2="489.367" fill="none" stroke="#fff" stroke-miterlimit="10" stroke-width="3"></line>
    <line x1="41.44" x2="197.457" y1="373.178" y2="104.354" fill="none" stroke="#fff" stroke-miterlimit="10" stroke-width="3"></line>
    <line x1="294.012" x2="150.7" y1="101.419" y2="485.813" fill="none" stroke="#fff" stroke-miterlimit="10" stroke-width="3"></line>
    <line x1="162.58" x2="468.22" y1="164.449" y2="280.708" fill="none" stroke="#fff" stroke-miterlimit="10" stroke-width="3"></line>
    <line x1="422.5" x2="470.56" y1="104.354" y2="478.928" fill="none" stroke="#fff" stroke-miterlimit="10" stroke-width="3"></line>
    <path fill="none" stroke="#fff" stroke-miterlimit="10" stroke-width="3" d="M361.21977,105.1334,328.9,489.36723"></path>
    <line x1="41.44" x2="468.22" y1="489.367" y2="330.547" fill="none" stroke="#fff" stroke-miterlimit="10" stroke-width="3"></line>
  </g>
  <path fill="#350313" d="M209.67825,198.47132c-12.6428,7.8276-14.77689,12.83922-14.23711,16.01667.58082,3.41912,4.15926,4.13541,7.11856,10.678,1.31611,2.90951,3.27867,7.24889,1.77971,11.27086-1.65616,4.44378-5.67707,3.50814-8.89827,8.30523-3.26615,4.86408-3.12555,11.77324-1.18637,16.60986,2.25855,5.63317,5.6478,5.18934,6.52536,10.08449.94681,5.28076-2.137,10.598-3.55927,13.05073-2.06967,3.56879-3.01693,3.42939-4.15247,5.93218-2.42042,5.33447-.7964,11.87341,1.18638,15.42348,5.189,9.291,19.84584,10.66411,28.47421,9.49131,17.709-2.40685,31.641-18.47571,36.18581-32.03334C267.55417,257.52849,248.7167,221.60654,209.67825,198.47132Z"></path>
  <path fill="#c46f5c" d="M433.55005,437.98337H93.48022c12.66993-55.29,22.1001-85.74,22.1001-85.74,4.76953-28.63995,9.67969-34.18,9.67969-34.18l66.62012-20.74,9.02978-2.81a27.31742,27.31742,0,0,0,18.46-19.78c0-.01.01026-.03.01026-.04.12011-.5.23-1.02.31982-1.53.06006-.34.10986-.69.16016-1.04.02978-.26.06982-.53.1001-.79.06982-.65.12011-1.31.13964-1.98.01026-.31.02-.62.02-.93V231.85337H288.49v36.56995a27.30109,27.30109,0,0,0,11.10986,21.99,27.01533,27.01533,0,0,0,8.08008,4.1l75.66992,23.55c21.27,9.85,28.8501,37.88,28.8501,37.88h.10986S421.30981,385.04337,433.55005,437.98337Z"></path>
  <path fill="#995748" d="M246.05372,270.755c24.3837-4.2503,42.43156-32.50048,42.43156-32.50048s-24.18209-1.991-39.30573-6.3973h-29.063V268.426a27.30286,27.30286,0,0,1-.73655,6.26744l-.00068.03823S221.66971,275.00532,246.05372,270.755Z"></path>
  <path fill="#d0eafc" d="M434.36011,437.98337h-356.71c12.31982-53.38,21.40966-82.73,21.40966-82.73,4.77051-28.64,26.83008-37.88,26.83008-37.88l65.98-20.53,9.68994-3.02a27.09137,27.09137,0,0,0,7.81006-3.9l.31006-.23s.04.04.11035.12c1.05957,1.34,11.35987,13.89,26.77979,20.66a48.46875,48.46875,0,0,0,18.16015,4.28c.14991.01.28956.01.44.01h.17968c.41993.01.83008.01,1.25,0H256.78c.1499,0,.30029,0,.46-.01,12.91992-.38,27.49023-6.67,42.35986-24.34.21-.24.41016-.48.61036-.72a27.22885,27.22885,0,0,0,8.12988,4.13l75.66015,23.55c21.26954,9.84,28.83985,37.88,28.83985,37.88H412.95S422.04028,384.60337,434.36011,437.98337Z"></path>
  <path fill="#accfe2" d="M259.47 314.76334v123.22h-8.70019v-123.22h4.58007c.41993.01.83008.01 1.25 0ZM268.42834 345.04344c7.19718 0 7.2091-11.18526 0-11.18526-7.19718 0-7.2091 11.18526 0 11.18526ZM268.42834 385.0121c7.19718 0 7.2091-11.18526 0-11.18526-7.19718 0-7.2091 11.18526 0 11.18526ZM268.42834 425.38188c7.19718 0 7.2091-11.18526 0-11.18526-7.19718 0-7.2091 11.18526 0 11.18526Z"></path>
  <path fill="url(#linear-gradient)" d="M312.32645,159.2624a10.55734,10.55734,0,0,0-4.51921.1047C302.534,122.96059,280.654,95.65827,254.45143,95.65827c-26.27556,0-48.20811,27.45227-53.40333,64.01086a10.75283,10.75283,0,0,0-5.51007-.40673c-8.11363,1.613-12.74885,12.68927-10.35317,24.73919,2.3118,11.62841,10.32587,19.88566,18.17519,19.00161,7.70481,28.53728,27.07935,48.65618,46.63795,53.74413a17.72842,17.72842,0,0,0,4.45343.26461,13.75061,13.75061,0,0,0,3.54344-.16745c21.87945-5.85464,40.52654-25.34112,47.78449-53.77551,7.42511-.0872,14.71383-8.069,16.90042-19.06739C325.07546,171.95167,320.44009,160.87542,312.32645,159.2624Z"></path>
  <path fill="#995748" d="M266.32794,197.24585a20.61857,20.61857,0,0,1-12.59339,6.031c.1483.02472.29661.03708.44491.04944h-.88982c.1483-.01236.29661-.02472.44491-.04944a20.55565,20.55565,0,0,1-12.43273-5.858Z"></path>
  <ellipse cx="313.46" cy="180.488" fill="#995748" rx="12.945" ry="5.196" transform="rotate(-82.718 313.46 180.488)"></ellipse>
  <ellipse cx="195.337" cy="180.488" fill="#995748" rx="5.196" ry="12.945" transform="rotate(-7.282 195.337 180.488)"></ellipse>
  <path fill="#995748" d="M201.04805 159.66913c.63769 3.64749.97509 7.2616 1.26562 10.871.272 3.608.44727 7.2071.59082 10.80039.14551 3.59277.20655 7.18542.29346 10.77765l.16211 10.885a43.75966 43.75966 0 0 1-3.064-10.60477 81.28378 81.28378 0 0 1-1.0957-10.91956 96.66553 96.66553 0 0 1 .208-10.94A66.73836 66.73836 0 0 1 201.04805 159.66913ZM308.11445 159.66913a66.73836 66.73836 0 0 1 1.63965 10.86975 96.77775 96.77775 0 0 1 .208 10.94 81.28378 81.28378 0 0 1-1.0957 10.91956 43.75966 43.75966 0 0 1-3.064 10.60477l.16211-10.885c.08691-3.59223.148-7.18488.29346-10.77765.14355-3.59329.31885-7.19238.59082-10.80039C307.13936 166.93073 307.47676 163.31662 308.11445 159.66913Z"></path>
  <path fill="#502e2c" d="M278.03975,87.2154a28.031,28.031,0,0,1,1.229,6.13351,46.01889,46.01889,0,0,1,.17773,6.09509,45.27529,45.27529,0,0,1-.61767,6.066,27.6832,27.6832,0,0,1-1.6792,6.02713,27.68216,27.68216,0,0,1-1.23389-6.13373,45.27665,45.27665,0,0,1-.17285-6.09488,46.10091,46.10091,0,0,1,.62256-6.06576A28.0321,28.0321,0,0,1,278.03975,87.2154Z"></path>
  <path fill="#350313" d="M305.32719,105.01168c-9.54863-14.82909-25.80456-17.79624-27.28768-17.79624,0,0-24.00223-18.10369-51.62468.77211a56.0464,56.0464,0,0,0-12.71974,12.05384c-12.78672,9.33682-16.99953,25.80517-14.83512,59.12265.07151.03168.13321.05732.20411.0887-2.32206,8.35954,2.23638,27.3681,2.23638,27.3681s8.60016-10.17229,9.78669-15.51129a12.87759,12.87759,0,0,1,5.15614-7.79109l-.00135-.00151a6.10941,6.10941,0,0,0,1.26512-.9634c2.49435-2.40956,1.06538-5.76774,4.79513-11.90388,1.65858-2.72879,4.13256-6.79843,8.29845-7.83153,4.60293-1.14172,6.10054,2.70555,11.87853,2.65637,5.85886-.05008,11.48238-4.06632,14.37983-8.39755,3.37477-5.04421,1.0951-7.59136,4.6402-11.079,3.82434-3.76248,9.95414-4.219,12.78159-4.42959,4.11415-.30625,4.53384.55426,7.24075.07875a13.7826,13.7826,0,0,0,4.28206-1.55478c9.3077,10.89371,22.61248,32.92885,21.2499,68.93951,0,0,1.841-15.3903,4.25113-29.71792C311.30463,159.114,317.78081,124.35183,305.32719,105.01168Z"></path>
  <path fill="#38101b" d="M242.51 143.413a37.24585 37.24585 0 0 1-7.4834 3.73077c-1.27783.48843-2.56982.91751-3.86963 1.3104l-1.90918.55108q-.873.24151-1.72265.55176a34.13423 34.13423 0 0 0-6.58252 3.16516c-.53516.3248-1.0586.67563-1.59082 1.03287-.55127.3872-1.13184.7828-1.7124 1.15814a28.87053 28.87053 0 0 1-3.71631 2.052 28.77257 28.77257 0 0 1 1.97021-3.76053c.36817-.59225.73194-1.16922 1.13379-1.74548a16.614 16.614 0 0 1 1.39453-1.7243 18.508 18.508 0 0 1 7.45606-4.86643c.71533-.23334 1.43554-.45511 2.17041-.61612.7583-.15768 1.35644-.26913 2.04834-.38092 1.34033-.21817 2.68945-.40018 4.05224-.52277A37.24439 37.24439 0 0 1 242.51 143.413ZM265.82979 144.56494a37.24032 37.24032 0 0 1 8.33056-.71951c1.36817.01541 2.72705.09113 4.08057.20355.69873.05722 1.30322.12149 2.07178.21924.7456.10291 1.48046.26758 2.2124.44409a18.50537 18.50537 0 0 1 7.814 4.26715 16.62824 16.62824 0 0 1 1.52588 1.60965c.4458.543.85352 1.08973 1.26709 1.65125a28.80774 28.80774 0 0 1 2.25879 3.59457 28.82394 28.82394 0 0 1-3.86572-1.75439c-.6084-.32868-1.21778-.67758-1.79785-1.02039-.5586-.31442-1.10791-.62317-1.667-.905a34.13607 34.13607 0 0 0-6.81054-2.63952q-.87085-.24125-1.76026-.41507l-1.94629-.39978c-1.32714-.2898-2.64843-.61627-3.96093-1.00305A37.2439 37.2439 0 0 1 265.82979 144.56494Z"></path>
  <path fill="#bfb8ba" d="M264.4416 179.34323a24.15084 24.15084 0 0 1 .24414-3.76059 25.30432 25.30432 0 0 1 .7749-3.612 18.84322 18.84322 0 0 1 1.39112-3.39374 13.83861 13.83861 0 0 1 2.13135-2.91394 13.54992 13.54992 0 0 0-1.5625 3.16317 17.92057 17.92057 0 0 0-.74366 3.40009 23.74037 23.74037 0 0 0-.12988 3.45715 22.18557 22.18557 0 0 0 .36279 3.36551l.00537.02732a1.2489 1.2489 0 0 1-2.45019.48532A1.39421 1.39421 0 0 1 264.4416 179.34323ZM241.95283 179.90155a22.12253 22.12253 0 0 0 .36231-3.36551 23.60323 23.60323 0 0 0-.12989-3.45715 17.92 17.92 0 0 0-.74365-3.40009 13.52972 13.52972 0 0 0-1.562-3.16317 13.87345 13.87345 0 0 1 2.13135 2.91394 18.84141 18.84141 0 0 1 1.39062 3.39374 25.23722 25.23722 0 0 1 .77539 3.612 24.15285 24.15285 0 0 1 .24366 3.76059 1.24877 1.24877 0 1 1-2.47461-.26022ZM238.41133 186.49927a9.78447 9.78447 0 0 0 .55469-1.45642c.16845-.5311.32031-1.07639.46-1.62772.28125-1.1029.51757-2.23007.72461-3.36642.207 1.13687.38525 2.2836.51513 3.4491.06641.58294.11865 1.17041.15137 1.76785a11.98783 11.98783 0 0 1-.0127 1.90393l-.00683.06906a1.274 1.274 0 1 1-2.53467-.26025A1.29538 1.29538 0 0 1 238.41133 186.49927Z"></path>
  <path fill="#38101b" d="M293.03828 166.61817a36.65759 36.65759 0 0 0-6.2583-1.84674 29.21218 29.21218 0 0 0-6.26221-.57972 13.66514 13.66514 0 0 0-1.56445.06821 12.42449 12.42449 0 0 0-1.56445.13336l-1.56983.193c-.51513.11087-1.03271.22515-1.55908.31762a12.34435 12.34435 0 0 0-1.56445.36023l-1.5752.41089c-1.05859.28027-2.07715.68582-3.20166.94315a23.03487 23.03487 0 0 1 2.70655-2.05881 19.17621 19.17621 0 0 1 3.07714-1.51309 18.79129 18.79129 0 0 1 6.79053-1.3393 18.32308 18.32308 0 0 1 6.82617 1.209A14.63262 14.63262 0 0 1 293.03828 166.61817ZM215.65645 166.61817a14.63605 14.63605 0 0 1 5.71923-3.70215 18.32568 18.32568 0 0 1 6.82666-1.209 18.79531 18.79531 0 0 1 6.79053 1.3393 19.1512 19.1512 0 0 1 3.07666 1.51309 23.03938 23.03938 0 0 1 2.707 2.05881c-1.125-.25733-2.14355-.66288-3.20166-.94315l-1.57519-.41089a12.37114 12.37114 0 0 0-1.56494-.36023c-.52637-.09247-1.04346-.20675-1.55909-.31762l-1.56933-.193a12.43236 12.43236 0 0 0-1.56494-.13336 13.66056 13.66056 0 0 0-1.56446-.06821 29.20491 29.20491 0 0 0-6.26172.57972A36.6625 36.6625 0 0 0 215.65645 166.61817Z"></path>
  <path fill="#70091d" d="M278.169,222.36666s-11.97528-13.90843-24.71014-11.07692-18.1009,15.85209-18.1009,15.85209Z"></path>
</svg>
