<svg xmlns="http://www.w3.org/2000/svg" xml:space="preserve" id="happy-businessman" x="0" y="0" version="1.1" viewBox="0 0 400.3 500.3" enable-background="new 0 0 400.3 500.3">
  <g id="Layer_1-2">
    <path d="m286.5 209.9-1.8.2c.8 1.7 1.5 3.3 2.2 5 2.5 6 5.4 11.8 8 17.7 2.4 5.2 3.8 10.8 4.4 16.6-1.5 1.2-1.2 3-1.3 4.6-10.4 15-24.2 25.1-41.8 30.2-9.7 2.8-19.6 4.4-29.8 3.7-1.5-1.1-3.5-1.2-5.2-.4-2.9-.8-5.9-1.4-8.8-1.8-8-1.7-15.7-4.3-23.1-7.8-7.9-3.7-15.5-8.2-22.5-13.4-.8-.7-1.7-1.1-2.8-1.3-.7-.5-1-1.3-1.6-1.8-.6-1.4-1.8-2.3-2.8-3.4-3.4-3.9-6.5-8-8.3-13 1.9-2.3 4.1-4.3 6.5-5.9 7.4-5.3 15.5-9.5 24-12.6 2.4-.9 3-.6 4.1 1.8 1.6 3.7 1.4 4.1-1.7 6.9-6.9 5.9-12.8 12.9-17.6 20.6-.7.8-1 1.8-.9 2.8.8-.1 1.1-.7 1.4-1.2 4.7-8.5 11.6-15.2 18.4-21.9 1.7-1.6 2.7-1.4 3.7.7 3.6 7.4 8.9 13.6 14.4 19.7 2.9 3.4 6.1 6.6 9.6 9.5 4.8 3.9 10.8 5.9 17 5.8 10.9-.3 17.6-4.9 20.6-16.1.9-3.1.9-6.4 1.3-9.6.6-5.8.1-11.5-.1-17.2 0-2.4-.6-4.7-.5-7 .1-2.7.9-3.3 3.6-3.2 8 .1 15.9.7 23.8 1.9.3.1.7-.1.8-.4-.5-.8-1.4-.9-2.3-1-4.9-.8-9.8-1.3-14.7-1.4-2.9-.1-5.9-.6-8.8-.5-2 .1-2.3-1.4-2.6-2.9s.5-2.3 2-2.7c3.6-.8 7.2-1.4 10.9-1.7 6.6-.6 13.2-.5 19.9-.5.9 0 1.8-.1 2.5.6 0 .1.1.1.1.2.1.1 0 .2-.2.2z" fill="#e07476"></path>
    <path d="M144.6 219.7c.8-1.3.6-2.8.8-4.2.5-4.4 2.4-8.6 5.5-11.7 1.7-1.5 3.7-2.7 5.7-3.7 1.4-.9 2.9-1.7 4.4-2.5 1.7-1 3.2-2.3 4.4-3.9 2.6-3.1 4.5-6.6 7-9.6.4-.5.4-1-.2-1.2-2.9-1.1-4.5-3.4-5.5-6.2-1.2-3.1-1.3-6.5-.5-9.8.5-2.2 1.3-4.2 2.5-6.1.5-.8 1.2-1.5 1.9-2.1 1.4-1.4 3.7-1.6 5.3-.3 2.4 1.5 4.5 3.7 5.9 6.2 1.6 2.8 4.2 4.8 7.3 5.7 1.9.5 4 .6 5.9.2 6-1 12.1-1.6 18.2-2.1 3.9-.3 6.2-2.8 7.7-6.1.7-1.8 1.2-3.6 1.5-5.5.7-3.9 2.5-7.6 5.3-10.5 3.1-3.3 8.2-3.8 11.9-1.3 4.5 2.9 6.2 7 5.5 12.3-.4 3.1-1.6 6-3.3 8.6-2.1 3.2-2 3.6 1.5 5.2 3.6 1.6 7 3.3 10.4 5.4 1.7 1 3.3 2.3 4.6 3.8 4.3 5.1 9.1 9.7 14.4 13.7 1.8 1.4 3.4 3.1 4.7 5-.6 1-1.6.9-2.5 1.1-9.8 1.3-19.5 3.2-28.7 6.9-1.7.7-3.4 1.5-5 2.4-1.5.9-3.3.9-4.8 0-4.9-2.4-10.1-4.1-15.5-4.9-4.4-.9-8.6 0-12.7 1.6-3.1 1.2-3.1 1.2-3.6-2-.8-4.9-4.4-8.9-9.3-10.2-4.9-1.1-9.7 1.9-10.9 6.7-.1.3-.1.6-.2 1-.6 4.3 1 8.6 4.3 11.5.3.3.6.5.8.7s1 .8.7 1.5-1.1.7-1.7.6c-2.4-.2-4.8-.6-7.2-.8-.6 2.7-2.6 3.4-5 3.5-2.9.8-6 .8-8.9 1.4-4.6.9-9.2 2.1-13.6 3.6-.9.3-2 .5-2.7 1.6 1 .6 1.8-.1 2.7-.4 6.1-2.1 12.3-4 18.9-4.3 1.9.1 3.8 0 5.7-.3 1.2-.3 2.4-.1 2.5 1.6.1.7.7.9 1.3 1 .8.3 1.6.7 1.5 1.6s-1 1.1-1.8 1.4c-10.7 3.7-20.6 9.3-29.2 16.6-.5.4-1 1.1-1.9.7-2.5-4.1-3.8-8.7-5-13.3-.4-1.6-.7-3.1-.9-4.7.3-2.1-.2-3.8-.1-5.4z" fill="#e07476"></path>
    <path d="M96.9 319.5c3.9 3.5 7.4 7.3 10.5 11.5 8.3 10.6 16.3 21.4 24.3 32.2 2.7 3.6 5.6 7 8.7 10.2.8.9 1.7 1.6 2.7 2.2.3.1.6.3.8.6 1.2 7.2 3.7 14.1 7.3 20.5.4.7.9 1.4.4 2.3-2-.5-3.7-1.8-5.5-2.6-8.5-3.8-17.1-7.5-25.7-11.1-9.6-4.1-18.5-9.7-26.4-16.5-7.3-6.1-13.5-13.4-18.4-21.5-.1-.3-.3-.5-.4-.8.9-3.1 3.4-5.3 5.3-7.7 3.8-4.7 8.1-8.9 12.1-13.4 1.7-1.8 2.6-4.1 4.3-5.9z" fill="#df7476"></path>
    <path d="M264.3 472c2 .1 4.1.1 6.1-.1 2.9-.3 5.9-.5 8.8-.3 8.5.1 16.8 2.7 23.8 7.5 2.1 1.4 3.8 3.3 4.9 5.6 1.1 2.5.6 4.7-1.2 6.7-2.3 2.7-5.5 4-8.7 4.9-5.2 1.4-10.4 2.4-15.8 2.8l-11.4.9c-5.6.4-11.2.5-16.7.2-5.6-.2-11.3-.5-16.9-.9-7.7-.5-15.3-1.3-22.7-3.5-3.4-1-6.8-1.9-9.8-3.9-3.1-1.9-4.1-6-2.2-9.1.3-.5.7-1 1.1-1.4 2.8-2.8 6.3-4 9.9-5 4.5-1.2 9.2-2 13.8-2.4 4.8-.4 9.7-.6 14.5-.9 3.5-.2 7-.3 10.6-.4.5.1 1-.1 1.4-.5 1 .1 1.2 1 1.6 1.7 2.4 4.6 3.7 9.6 3.8 14.8.2 3.5 1.1 4.8 4 5.2.4-.1.8-.3 1.1-.6 2.5-3.3 2.3-7.2 1.8-11-.3-2.8-.9-5.6-1.8-8.4-.2-.4-.5-1.2 0-1.9z" fill="#e1f0ff"></path>
    <path d="M162.7 261.1c1 .1 1.2 1 1.6 1.7.2 1.6-1 2.6-1.8 3.6-1.1 1.4-1 2.2.6 3.1 7.7 4.5 15.7 8.6 23.9 12.3 8.3 3.9 16.7 7.2 25.4 10.2 3.3 1.1 3.3 1.1 5.6-1.4 1.1-1.2 1.7-3 3.6-3.3.1 0 .1-.1.2-.1 2.2-1.5 2.6-1.5 4.6.3 2.1 1.2 3.1 3.3 4.3 5.2 3.4 5.3 1.7 5.4 8.9 4 19.6-3.9 37.8-12.7 53-25.6 1.9-1.7 3.6-3.4 5.3-5.3 1.2-1.1 1.6-2.9 1.1-4.4-.6-2.5-1.5-4.9-1-7.6l-.2-1.2c-.4-2.2-.3-2.2 1.8-3.1 1 .2 2 .6 2.8 1.2 6 3.5 11.7 7.6 16.9 12.3 7 5.9 14.6 10.9 22.2 15.9.2.2.5.4.8.3 1.1-2.2 1.6-2.6 3.5-2.6 1.5 0 2.1.4 2.4 2 .2 1 .3 2 .4 3l.3 2.4c.4.5.6 1 .6 1.6.2 7.6 1.1 15.3-.4 22.9-.1.5-.3 1-.5 1.5 0 1.5-1 2.7-2.4 3.1-1.2.3-2.5 1.3-3.7 0-.3-.3-.7-.1-1 0-5.1 2-10.4 1.3-15.7.8-2.9-.3-5.7-.5-8.5-.7-.6.6-.4 1.2-.4 1.8-.2 11.7-.8 23.4-2.1 35-.7 6.2-1.7 12.4-2.4 18.6-.3 2.5-.4 5.1-.2 7.7.6 9.2-1.5 18-4.7 26.5-3.7 9.8-8.2 19.4-12.7 28.9l-2.8 6c-2.7 6-7.8 10.7-14 13-5.2 2-10.7 3.1-16.1 4.4-3 .7-6.1 1.1-8.9 2.3-1.4 0-2.5-.3-2.2-2.1 1.8-1.3 3.9-1.6 6-2.1 5.2-1.3 10.5-2.2 15.7-3.7 5.7-1.7 11.1-4 14.7-9.2.5-.6.9-1.3 1.3-2 6.1-12.4 12.1-24.9 16.9-37.9 3.3-8.9 4.7-18.5 4.1-28-.1-1.5-.6-1.7-1.9-1.4-8.7 1.7-17.7 2-26.5 1-18.3-1.9-36.2-5.6-54.2-9.2-10.1-2-19.9-5.4-29.8-8-.6-.1-1.1-.4-1.5-.9-.5-.9-.2-2 .7-2.5.1 0 .1-.1.2-.1 1.6-.1 3.2.2 4.7.9 23.1 7.3 46.9 11.3 70.8 15 6 1.1 12.1 1.6 18.2 1.7 5.7-.1 11.5 0 17.1-1.6 1.6-.3 2.8-1.7 2.9-3.4 1.2-9 2.4-18.1 3-27.2.5-7 .7-14 .9-20.9.1-6.9-.9-13.7-3-20.2-2.6-8.7-5.6-17.2-9.1-25.6-.9-2.1-.9-2.1-2.4-.5-6.6 6.6-14.1 12.2-22.2 16.8-11.2 6.5-23.3 11.1-35.9 13.8-2.1.6-4.2.9-6.3.9-1.2 0-2.3.5-3.2 1.3-3.3 2.3-4.8 4.7-4 9.1 1.3 7.5.6 15.3.6 22.9 0 3.2-.3 6.5-.7 9.7-.2 1.7-1.2 3.2-2.7 4.1-2.5 1.6-4.9 3.3-7.4 4.9-2.7 1.7-4.7 1.1-6.1-1.8-1.5-3.2-2.8-6.5-3.8-9.9-.7-2.2-.2-4.2.4-6.3 2-6.5 4.5-12.8 6.9-19.1.7-1.9 1.6-3.7 2.2-5.5s2.6-4 1.3-6.2c-2-3.6-3.6-7.6-8.2-9-14.3-4.4-27.6-10.9-40.9-17.7-3.4-1.7-6.6-3.6-9.7-5.7-2.6-1.8-2.9-3.1-.9-5.6 1-2 1.8-4 3.7-5.1z"></path>
    <path d="M181 213.6c1.1.2 2.1.6 3.2.7 1.8.2 3.6.4 5.5.5.1-1-.8-1.1-1.2-1.5-4.2-3.6-6.1-8.1-4.7-13.6 1.1-5.1 6.1-8.2 11.2-7.1.5.1.9.2 1.4.4 5.1 1.8 7.9 5.6 8.8 10.9.1.6.1 1.2.1 1.8.8.3 1.3-.3 1.8-.5 3.7-1.8 7.9-2.5 12-2.2 2.5.3 4.9.8 7.3 1.5 3.7.9 7.3 2.3 10.7 4.1.9.6 2 .6 2.9.1 8.3-4.3 17.2-6.8 26.4-8.4 3.6-.6 7.3-1.1 10.9-1.7 1.8.4 3.5-.1 5.3 0 .9.1 2-.1 2 1.1s-1.1 1-2 1c-.7 0-1.3-.1-2-.1-11.3 2.6-23.1 3.6-33.9 8.2-1.1.4-2.2 1-3.3 1.6 1 .6 2.3.7 3.3.1 10.7-3.7 21.8-3.9 32.9-3.8 1.3 0 2.7.3 3.8 1 1.4 0 2.8.1 4.1.1 1.1 0 2.2.3 3.1.8.3.2.5.5.4.9s-.4.4-.7.5c-1 .1-2 0-3-.1h-.9c-2-.6-4-.3-5.9-.3-7.7-.2-15.3.2-22.9 1.3-1.5.2-3 .6-4.5.9-.8.1-1.2.5-1.1 1.4v.2c0 2.9 0 2.8 2.9 2.9 7.4.1 14.7.6 22 1.7 1 .2 2 .4 3 .7.7.2 1.3.6 1.1 1.4s-.9.8-1.6.7c-2.7-.5-5.5-.9-8.3-1.2-5.6-.6-11.3-.8-17-.9-1.8 0-1.9.1-1.8 1.8.2 4.3.4 8.7.7 13 .4 7 0 14-1.2 20.9-1 5.2-3.7 9.9-7.8 13.2-2.9 2.4-6.4 3.3-10 3.8-7.8 1.3-15.9-1-21.8-6.3-8.7-7.5-16.2-16.4-22.1-26.2-.8-1.3-1.4-2.7-2.1-4.1 0 0-.1-.1-.2-.1-.4 0-.7.3-.9.5-7.5 6.8-14.5 14-19.5 23-.4.7-.7 1.8-1.9 1.4-.8-.3-.8-1 0-2.5 2.2-4.3 5-8.3 8.3-11.9 3.7-4.2 7.6-8.2 11.8-11.9 1.4-1.2 1.4-1.2.7-2.9-.3-.8-.6-1.6-1-2.5-.6-1.6-.7-1.6-2.2-1.1-2.6.9-5.1 1.9-7.6 3-6.9 3.1-13.5 7-19.5 11.6-1.5 1.2-2.9 2.5-4.3 3.8-.1.3.1 0 0 .2-.4 1.1-1.4 1.9-2.6 2-.6.1-1.2-.4-1.2-1-.3-1.3.7-2 1.5-2.7.4-.5.9-.8 1.5-.8 9.4-8.7 20.6-14.3 32.5-18.7-.1-.6-.6-1.1-1.2-1.3-.7-.4-2.2-.1-1.9-1.6.3-1.1 1.3-1.2 2.3-1.2 1.2 0 2.3.4 3.3 1 1.7.9 3.6 1.1 5.5.6 1.6-.4 3.1-.6 4.8-.7.5 0 .9 0 1.4.2 1.2 1.5 1 2.5-.8 3-1.4.4-2.9.5-4.6 1 .5.9 1.7 1.1 2.5.6.1 0 .1-.1.2-.2 1.2-.8 2.4-1.4 3.5-2.3.5-.4 1-.6 1.6-.7.7-.2 1.5 0 1.9.7.5.8 0 1.4-.6 1.9-.9.8-2 1.4-3.1 2.2-1.6 1.2-1.6 1.6.1 2.4 2.8 1.5 6 2.1 9.2 1.8 6.9-1 13.7-1.9 20.7-1.7 2.8.1 5.4-1 7.3-3.1 1.9-1.8 3.6-3.8 5.2-5.9-1-.2-2.3-.2-2.2-1.6s1.3-1.7 2.3-2c1.6-.6 3.6-.4 4.7-2.4-3.2 1.1-6.2 2.5-9.1 4.2-.4.3-.9.6-1.3.8-.9.4-1.7.6-2.4-.3-.5-.7-.3-1.7.5-2.2l.1-.1c1.7-1.2 3.5-2.3 5.3-3.1l1.2-.6c-1.4-.7-2.4-.2-3.4.5-1.9 1.3-3.8 2.6-5.7 3.8-.9.6-2 1.3-2.9 0s.1-2.1 1-2.8c1.8-1.4 3.7-2.6 5.7-4.1-2.2-1.3-4.5-2.3-7-2.8-4.2-1.1-8.3-2.5-12.8-2-4.8.7-9.2 2.7-12.9 5.9-3.1 2.5-6.2 4.7-10.2 5.5-3.6.7-7-.1-10.5-.8-1.3-.7-1.4-1.9-.1-3.2zM98.3 152.4c-.7.9-1.3 1.6-1.8 2.3-3.9 6.2-8 12.4-10.7 19.3-.5 1.4-1.1 2.7-1.8 4-1 1.9-1.8 2.2-3.8 1.4-3.4-1.5-6.6-3.2-9.7-5.2-4.3-2.7-8.4-5.7-12.2-9.1-3.8-3.4-7.9-6.4-12.3-9-6.5-4-13.1-8.1-19.6-12.3-1.6-.8-2.5-2.6-2.2-4.3 1.2-12.6 4-24.8 10.4-36 3.8-6.8 8.3-13.2 13.2-19.2 1.1-1.3 2.2-2.8 3.3-4.1 1.6-2 2.7-1.9 4.1.2 2.9 4.5 5.7 8.9 8.8 13.2 3.5 4.8 6.9 9.7 10.2 14.7 3.6 5.5 7.8 10.5 11.8 15.7l2.5 3.2c4.4-6.3 9.8-11.8 16-16.4-1.7-2.6-3.6-5-5.8-7.2-5-5.6-10.4-10.7-16.2-15.6-.9-.7-1.7-1.5-2.4-2.3-1.5-1.7-1.6-2.9 0-4.7 3.6-4.1 7-8.3 10.8-12.2 5-5 9.9-10.1 14.9-15.1 1.2-1.3 2.6-2.4 4.1-3.3 3-2 7.1-1.4 9.3 1.4 1 1.2 1.9 2.6 2.5 4.1 5 11.8 11.9 22.8 20.3 32.4 1.4 1.6 2.8 3.3 4.1 4.9.8 1 1.6 2 2.2 3 1.6 2.4 1.5 3.2-.3 5.3s-3.4 3.9-5.1 5.8c-.9 1-1.8 2.1-2.8 3.1-.5.4-.6 1.2-.2 1.8 1 1.8 1.9 3.7 2.9 5.4 3.2 5.4 6.3 11 9.1 16.6.9 1.8 2 3.5 3.2 5.1 1.7 2.3 1.7 3.9-.3 5.9-4.4 4.5-9.2 8.8-14.1 12.7-1.6 1.2-3.2 2.4-4.8 3.5-4.1 2.9-7.9 6.4-11.2 10.3-2.8 3.5-5 3.6-8.4.6-1.7-1.6-3.4-3.3-4.8-5.1-4.1-4.9-8.5-9.9-13.2-14.8z"></path>
    <path d="M151.7 399c-.7-1.8-1.5-3.5-2.5-5.1-3-5.5-4.9-11.6-5.6-17.8-.3-.6.1-1.3-.3-1.8-1.1-8-1.1-16-1-24 .1-5.4.5-10.9 1.1-16.3.8-7.2 1.6-14.5 2.4-21.7.4-4.2.2-8.4-.7-12.5-.5-2.5-1.5-4.8-3-6.8l-9.3-12.3c-2.8-3.6-5.2-7.5-7.6-11.3-3.2-5.1-4.3-11.3-2.9-17.1.6-3.2 1.2-6.4 1.8-9.5.3-1 .3-2.1.2-3.1-.7.3-1.4.5-2.1.7-1.2.3-1.8-.3-1.9-1.4v-.2c-.4-4.5-.4-4.5 4.5-7 3.7-3.1 7.6-6 11.6-8.7 1.8-1.2 3.4-2.8 5.7-3.2.9-.4 1.8-1 2.7 0 1 1.4 1.2 3.2.4 4.8-1.4 2.6-4 3.8-6.2 5.5-3.1 2.3-6.5 4.3-9.7 6.6-1.4.9-2.2 2.4-2.2 4.1-.1 3.1-.6 6.2-1.4 9.2-1.6 6.8-1.4 13.3 2.8 19.3 2.3 3.3 4.4 6.8 6.9 10 2.9 3.6 5.5 7.3 8.3 10.9 3.4 4.4 5.2 9.9 5.2 15.4.2 7-.8 13.8-1.5 20.7-.7 6-1 12-1.9 18-.3 1.8.8 1.9 2.1 1.9 5.7 0 11.4-.1 17 0 4 .1 8.1.4 12.1 1 .8 0 1.6.3 2.2.9.5.8.4 1.8-.3 2.5-2.3.8-4.5-.1-6.8-.3-8.2-.8-16.5-.7-24.7-.7-1.4 0-1.8.7-1.8 1.9-.1 11 0 22 3.1 32.6 5.1 17.2 16.3 29.1 32.7 36.3 8 3.5 16.5 4.8 25 6.1 7 1.2 14 2.9 20.8 5.1 6 1.9 11.1 5.5 15.9 9.4 1.2 1 1.9 2.5 1.8 4.1.1 2.3-.5 4.6-1.7 6.5-1 .7-2.1 1.4-2.5-.5.4-1.3.8-2.5 1.2-3.8.8-2.6.4-3.4-1.8-5.1-6-4.8-13-8.1-20.4-9.9-6.5-1.6-13-2.9-19.6-3.9-7.3-1-14.4-3-21.1-5.9-9.3-4-17.4-10.4-23.5-18.4-1.3-1.9-2.4-3.5-3.5-5.2z"></path>
    <path d="M141.9 219.7c-4.9 3.1-9.6 6.6-14.3 10-.9.7-1.9 1.4-3 1.8-.7-3.1-1.4-6.1-2.1-9.2-1-3.9-2.6-7.7-4.7-11.1-2.4-4-6.4-5.2-10.6-3.1-1.8.9-3.6 2-5.4 3-.8.5-1.8.8-2.7.8-1.1.1-2.1-.7-2.3-1.8v-.3c-.1-1.4.2-2.8.9-4 4.1-1.3 8.1-2.8 12.4-3.4-3.4.2-6.8 1-10 2.3-.7.3-1.4.9-2.3.5.1-2.1-.2-4.1.4-6.2 1.4-1.2 3.2-1 4.8-1.1h3.6c-2.7-.4-5.6.3-8.4-.2 1.6-4.2 3.6-5.4 8-5.1 3 .2 6 .2 8.9 1.4.9.4 2 .1 2.5-.8 1.1-1.6 2.5-2.9 4.1-3.9 1-.6 2.2-1 3.3-.9 1.8.1 2.7 1.3 2.1 3-.3.7-.7 1.4-1.2 2.1-.9 1.3-2 2.6-2.9 3.9-1.2 1.8-1.2 2.2.3 3.9 2.8 3.3 6.1 6 9.1 9 2.8 2.6 5.4 5.4 7.7 8.5.5.3.9 1 1.8.9zM348.4 309.7c-.1-1.8 0-3.5.3-5.3.5-4.3.5-8.7.2-13-.2-2.6-.3-5.1-.2-7.7 6 3.7 12.2 7 18 11 4 2.7 8.3 5 13.2 5.7 3.7.5 7.4.7 11.2 1 1.8.2 3.5.3 5.2.6.8.1 1.6.4 2.3.8 1.3.5 2 1.9 1.5 3.2-.1.2-.1.3-.2.5-.2.6-.6 1.2-1.1 1.6-2.2-.2-4.1-1.5-6.3-1.9-.8-.2-1.6-.3-2.4-.3 2 .4 3.9 1 5.8 1.8.7.3 1.6.4 1.8 1.4-1.2 1.5-3.2 2-4.4 3.5-1 .1-1.4-.7-2-1.2-1.5-1.4-3.2-2.5-5.1-3.2 2.5 1.8 5.1 2.9 5.9 5.6-.9 1.2-2.7 1.3-3.8.4-.9-.7-1.8-1.5-2.5-2.4-.5-.7-1.3-1.2-2.1-1.6-.8-.3-1.2 0-1.1.8.3 1.6.7 3.1 1.3 4.6.5 1.2.8 2.5.8 3.9 0 .9-.5 1.7-1.3 2.2-.9.3-1.8.1-2.4-.6-.7-.6-1.3-1.2-1.8-1.9-2.6-3.2-5.1-6.4-7.7-9.6-.6-.8-1.4-1.5-2.1-2.3-2.1-2.5-4.8-3.1-8-2.3-4.6.9-8.9 2.6-13 4.7z" fill="#e07476"></path>
    <path d="M96.9 319.5c-.7 2.1-1.8 4-3.3 5.6-1.8 2.2-3.8 4.3-5.7 6.4-4.6 4.7-8.7 9.7-12.5 15-3.8-6.5-6.8-13.2-7.2-20.8-.1-1.8.1-3.7.5-5.5 1.2-6.1 7.1-10.2 13.2-9 .2 0 .4.1.6.1 2.9.6 5.7 1.7 8.2 3.2 2.1 1.5 4.2 3.1 6.2 5zM30.7 234.2c-.1-5.3 1.1-10 4.7-14.1 4.5-4.9 9.5-9.5 14.8-13.6 7.8-6.2 15.9-11.9 24.5-16.9.8-.5 1.6-1 2.5-1.3 1.4-.8 3.2-.3 4.1 1.1.5.8 1 1.7 1.4 2.6 3.1 6.6 5.6 13.4 7.5 20.5 2.9 9.7 6.9 19.1 12 27.9.7 1.1 1.2 2.3 1.8 3.5.6 1.2.5 2.7-.3 3.8-.8 1.4-1.9 2.6-3.2 3.6-5.8 4.1-11.5 8.1-17.3 12.1-3 2.1-5.9 4.4-8.7 6.8-3.8 3.2-7.4 6.5-11.2 9.7-1.1.9-2.3 1.8-3.5 2.6-.8.7-2.1.6-2.8-.3-13-11.8-22.4-25.9-25.7-43.4-.3-1.5-.4-3.1-.6-4.6zM189.1 113.8c-5.6-.2-11.4-.3-17.2-1-.3 0-.6-.1-.9-.1-3.2-.6-3.6-1-3.6-4.3 0-3.8-.9-7.6-1.4-11.4-.8-6.3-2.1-12.5-2.7-18.8-.4-4-.5-7.9-.3-11.9 0-2 1.2-3.7 3.1-4.3 4-1.5 8.1-2.7 12.3-3.5 6.1-1.2 12.3-2.4 18.4-3.4 5.2-.8 10.4-1.3 15.6-1.6h2.4c3 0 4.1 1.1 4.1 4.2 0 2.4-.1 4.9-.4 7.3-1.1 11.8-2.2 23.6-3.2 35.4-.2 2-.4 4.1-.4 6.2 0 2-1.4 3.8-3.3 4.5-3 1.2-6.2 1.9-9.4 2.2-4.3.4-8.6.3-13.1.5z"></path>
    <path d="M240.3 450.9c.4.9.8 1 2.2.4 3 .5 5.9 1.8 8.1 3.9.2 1.2 1.3 1.4 2.1 1.9 5 3.9 9 9 11.5 14.9 1.2 3.3 2 6.7 2.5 10.2.5 3.1.3 6.3-.6 9.3-.2 1-.8 1.9-1.7 2.5-.6-.5-.9-1.3-.6-2 .3-1.8.3-3.7-.2-5.4-.3 2.7.3 5.4-.3 8.1-3.5.1-4.6-2.5-4.8-5-.1-2.4-.4-4.8-.8-7.2-.7-3.6-2.1-7-4-10.1-1.8-3.2-4-6.1-6.6-8.8-1.7-2-3.6-3.9-5.3-5.8-1.7-1.9-2.3-4.5-1.5-6.9z" fill="#df7476"></path>
    <path d="M356.7 121.4c0 .5-.3.9-.7 1.1-.6.5-1.3 1-2 1.4-16.1 9.2-28.9 22.1-40.2 36.6-4.9 6.3-9.3 12.9-13.5 19.6-.3.6-.7 1.1-1.2 1.6-.3.4-.8.4-1.2.1-.4-.2-.5-.7-.4-1.1.1-.4.3-.7.5-1 7.8-13.2 17.1-25.5 27.7-36.5 7.7-8 16.5-15 26-20.6 1.1-.7 2.2-1.4 3.4-2 .5-.3 1.1-.2 1.4.3.1 0 .2.2.2.5z" fill="#010101"></path>
    <path d="M283.4 207.7c-4.2-.5-8.5-.6-12.8-.4-5.8.2-11.6.9-17.3 1.9-1.9.4-3.8.9-5.6 1.6-2.9.9-2.9.9-5.8-.2 0-.8.8-.8 1.3-1 7.6-3.5 15.7-5.9 24-7.1 3.9-.7 7.8-1.3 11.7-2 .6-.1 1.1-.4 1.7.1-.3.3-.9 0-1.3.5 1.6 2 3 4.3 4.1 6.6z" fill="#df7476"></path>
    <path d="M165.8 453.3c0 .5-.3 1-.9 1h-.1c-.6 0-1.2-.1-1.7-.3-6.3-2-12.3-4.8-17.9-8.4-9.1-5.5-17.5-12.1-25-19.6-3.1-3.1-6.4-6.1-9.3-9.4-.5-.5-1-1.1-1.4-1.7s-.6-1.1 0-1.6c.5-.4 1.2-.3 1.6.1l.9.9c4 4.4 8.3 8.5 12.7 12.6 9.5 9 20.3 16.5 32 22.1 2.5 1.2 5 2.2 7.6 2.9.8.4 1.4.6 1.5 1.4zM70.2 50.5c-.1-4.5.7-9 2.3-13.3 2.6-7.6 6.3-14.6 12-20.4 3.1-3 6.6-5.5 10.3-7.5.3-.2.6-.3 1-.4.5-.1 1 .1 1.2.5.3.4.2.9-.1 1.2-.5.6-1.1 1-1.8 1.3-3 1.6-5.7 3.6-8.2 5.9-4.5 4.3-7.6 9.5-10.2 15.1-3.9 8.4-5.1 17.8-3.6 26.9.2 1 .5 2 .7 3 .1.5.1 1.1-.5 1.3-.5.2-1.2 0-1.4-.6v-.1c-.6-1.3-.9-2.7-1-4-.4-2.9-.6-5.9-.7-8.9zM162.6 39.1c1.5-15.3 8-27.7 21.7-35.5 1.7-1 3.5-1.9 5.3-2.8l1.2-.6c.6-.2 1.2-.3 1.6.3s0 1.3-.6 1.7c-.8.5-1.7 1-2.5 1.4-3.6 1.7-7 3.8-10.1 6.3-6.8 5.9-11.5 13.8-13.4 22.6-.9 3-1.3 6.1-1.1 9.2.1.7-.1 1.4-1 1.4s-1.1-.6-1.1-1.3c-.1-1 0-1.9 0-2.7z" fill="#010101"></path>
    <path d="M20.4 308.1c-.1-8.1 2-15.7 5.3-23 .6-1.3 1.3-2.5 2.2-3.5.2-.2.4-.5.6-.7.5-.5 1.1-.9 1.7-.3s.3 1.2-.1 1.7c-2.2 2.7-3.3 5.9-4.4 9.1-3.5 9.7-3.6 19.5-1.5 29.5.5 2.5 1.1 4.9 1.9 7.2.2.5.3 1 .5 1.5.1.6.2 1.2-.5 1.5-.5.3-1.2 0-1.5-.5 0-.1-.1-.2-.1-.3-.6-1.6-1.2-3.2-1.6-4.8-1.6-5.7-2.4-11.5-2.5-17.4z" fill="#020202"></path>
    <path d="M39.7 183.3c-.2.7-.7.9-1.3 1-6.4 1.3-12.5 3.9-18 7.5-6.1 3.9-11.4 8.9-15.8 14.7-1 1.3-1.8 2.7-2.4 4.2-.3.6-.7 1.3-1.5 1s-.8-1.1-.6-1.9c.5-1.5 1.2-2.8 2.2-4.1 8.8-11.8 20.1-19.9 34.5-23.3.6-.2 1.3-.3 2-.1.6 0 .9.5.9 1z" fill="#020101"></path>
    <path d="M344.9 147.4c-.1.7-.5 1.3-1.1 1.6-1.2.9-2.4 1.7-3.6 2.6-9.3 6.9-17.1 15.6-22.9 25.6-.1.3-.3.5-.5.8-.3.4-.8.8-1.3.5-.5-.2-.8-.9-.5-1.4 0 0 0-.1.1-.1.3-.7.6-1.4 1-2 6.4-11 15.1-20.4 25.7-27.4.5-.4 1.1-.7 1.7-1 .5-.2 1.1 0 1.3.5.1.1.1.2.1.3z" fill="#020202"></path>
    <path d="M233.5 69.2c-.6 0-1-.5-.9-1.1 0-.1 0-.2.1-.4.3-.5.6-1 1-1.4 1.4-1.5 3-2.8 4.8-3.9 6.7-4.4 14.1-7.7 21.8-9.8.9-.2 2-.9 2.5.4s-1 1.5-1.8 1.8c-2.7 1-5.5 1.7-8.1 2.8-6.6 2.8-13.2 5.8-18.4 11.1-.3.3-.6.4-1 .5z" fill="#030202"></path>
    <path d="M263.2 64.6c.9 0 1.4.1 1.5.8.1.6-.2 1.1-.8 1.3h-.1l-3.9.9c-4.5.9-9 2.3-13.2 4.1-1.8.7-3.4 1.7-4.9 2.9-.4.3-.8.6-1.3.8-.5.2-1.1-.1-1.3-.6-.1-.3-.1-.6.1-.8.3-.5.8-.9 1.3-1.2 4.4-3.3 9.4-4.9 14.6-6.4 2.6-.8 5.3-1.3 8-1.8zM148.6 431.2c-.8-.3-1.9-.6-3-1.1-6.3-3.1-12-7.2-16.8-12.3-.6-.6-1.6-1.3-.6-2.2.9-.9 1.6 0 2.2.6 3.3 3.2 6.8 6.1 10.6 8.7 2.7 1.8 5.4 3.6 8.6 4.3.6.1 1.1.5 1.1 1.2s-.9 1-2.1.8zM91.4 41.6c.8-5.1 2.4-10.1 5.8-14.5 1.6-2.1 3.5-4 5.6-5.6.3-.3.7-.5 1.1-.8.4-.3 1.1-.2 1.4.2.4.4.4 1 0 1.4-.3.4-.7.8-1.1 1.1C98.3 28 94.5 34.7 93.7 42v.2c-.2.8-.4 1.5-1.4 1.3s-.9-.9-.9-1.9z" fill="#030303"></path>
    <path d="M173.7 35.4c.2-.8.5-2.2.9-3.4 1.5-5.5 4.4-10.5 8.3-14.6.4-.5.9-.9 1.5-1.3.5-.3 1.2-.1 1.5.4.2.3.2.8 0 1.1-.3.4-.6.8-1 1.2-4.5 4.8-7.6 10.7-8.9 17.1 0 .2-.1.3-.1.4-.2.6-.4 1.3-1.3 1.3-.8 0-1-.6-.9-2.2z" fill="#040303"></path>
    <path d="M25 210.1c-.6 0-1-.4-1.1-.9 0-.1 0-.3.1-.4.3-.9.7-1.8 1.3-2.5 2.4-3.3 5.5-5.7 8.6-8.2.3-.2.6-.4 1-.4.5-.2 1.1.1 1.3.6.2.4.1.9-.3 1.2-.3.3-.6.4-.9.7-1.8 1.5-3.5 2.9-5.2 4.4-1.5 1.2-2.7 2.7-3.6 4.4-.2.5-.5 1-1.2 1.1z" fill="#050404"></path>
    <path d="M36.9 291.2c-.5 2-.8 4.1-.9 6.2-.1 1.7 0 3.4.1 5.1 0 .4.1.9.1 1.3-.1.6-.3 1.2-1 1.2-.6 0-1-.4-1-1-.2-.7-.3-1.4-.3-2.2-.2-3.3.1-6.6.8-9.9.1-.4.2-.9.4-1.3.2-.6.8-.9 1.3-.7h.1c.4.4.3.9.4 1.3z" fill="#060606"></path>
    <path d="M97.7 205.1c3.9-2 8-3.2 12.3-3.6.6-.1 1.6-.3 1.6.6s-.9.8-1.5.8c-3.9.4-7.8 1.5-11.4 3.1-.5.3-1.1.6-1.2-.4.2-.1.2-.3.2-.5z" fill="#0a0505"></path>
    <path d="M397.7 309c-2.5-1.3-5.3-2.2-8.1-2.6-.4-.1-1-.1-.9-.7.1-.4.5-.7 1-.6.8.1 1.6.2 2.4.4 2.4.5 4.6 1.4 6.7 2.6-.2.4-.6.7-1.1.9z" fill="#100707"></path>
    <path d="M98.3 197.6c2.9-.6 5.8-.9 8.8-.6.4 0 .7.1 1.1.2.3.1.5.4.4.7-.1.2-.3.4-.4.4-.4.1-.7.1-1.1.1-2.9-.1-5.9 0-8.8.5-.2-.4-.2-.8 0-1.3z" fill="#0e090a"></path>
    <path d="M392 313.7c-1.5-2.2-3.7-3.8-6.1-4.8-.4-.2-.9-.4-.7-.9s.7-.5 1.1-.4c.8.2 1.5.5 2.2 1 1.7 1.1 3.3 2.5 4.7 3.9-.1.6-.6 1.1-1.2 1.2z" fill="#110809"></path>
    <path d="M143.3 374.3c.4.5.5 1.2.3 1.8l-.4-.4c0-.5.1-.9.1-1.4z" fill="#aba7a8"></path>
    <path d="M178.5 347.8c-11.2-1.6-22.5-1.6-33.9-1.2 0-1.8.1-3.5.4-5.3 1-9.1 1.8-18.3 2.9-27.4.6-5 .4-10-.6-14.9-.5-2.6-1.6-5.1-3.2-7.2-3-4.1-6.1-8.1-9.2-12.1-3-4-5.8-8.2-8.3-12.5-2.4-4.2-3.2-9.2-2.2-14 .6-3.5 1.2-6.9 1.8-10.4.3-1.1.3-2.2.3-3.3-.3-1.4.4-2 1.4-2.7 1.6-1.1 3.1-2.3 4.7-3.3 4.3-2.8 8.5-5.8 12.5-9 1 6.4 3.4 12.3 5.7 18.3-.7.7-1.4 1.3-2 2s-1.1 1.1-.4 1.9 1.3.2 1.9-.2 1-.8 1.5-1.3c.3.3.5.6.8 1 2.4 5.1 5.7 9.8 9.8 13.6.4.3.6.8.3 1.3-1.1 1.8-2.3 3.6-3.7 5.2-1.7 2.2-1.6 3 .7 4.4 3.6 2.4 7.4 4.5 11.3 6.5 9.1 4.7 18.3 9.1 27.8 12.9 4.4 1.8 8.8 3.2 13.3 4.7 1.1.3 2.1 1 2.8 2 1.6 2.2 3 4.6 4.4 6.9.5.8.6 1.8.1 2.7-3.5 8.7-7 17.3-9.9 26.2-2.1 6.5-2.1 6.5.4 12.9l2.4 5.7c1.1 2.3 2.3 2.7 4.4 1.4 2.8-1.8 5.5-3.7 8.3-5.5 1.4-.9 2.2-2.4 2.2-4.1.6-6.9.8-13.8.7-20.7 0-5.2-.3-10.5-1.1-15.6-.2-.6 0-1.3.6-1.7 1.6-1.1 3.1-2.5 4.5-3.9.6-.7 1.4-1 2.3-.9 1.5.1 3-.1 4.4-.4 20.8-3.9 40.2-13.2 56.2-26.9 2.2-1.9 4.2-3.9 6-6.1.5 0 .6.4.7.7 4.8 11.2 8.7 22.7 11.7 34.4.7 2.9 1.1 5.8 1.2 8.7.1 11.9-.5 23.7-1.7 35.5-.6 6.4-1.6 12.7-2.3 19.1 0 .9-.7 1.8-1.6 2-2.8.9-5.7 1.5-8.6 1.6-5.5.5-11 .6-16.5.2-7.9-.8-15.8-1.7-23.6-3.1-12.7-2.3-25.3-4.5-37.9-7.4-7.3-1.6-14.3-4.1-21.4-6l-4.3-1.1c-.9-.4-.6-1.2-.6-1.9-.2-3-.9-5.8-3.5-7.8-.5-.4-1-.8-1.6-1-2.3-.6-4.5 0-6.7.8l-.8.5c-1.5 1-2.6 2.4-3.3 4-.5.7-.5 1.6-1.5 1.8z" fill="#fff"></path>
    <path d="M297.8 253.6c.8 2.9 1 6 2 8.8.2.8 0 1.6-.5 2.2-1.3 1.8-2.8 3.4-4.5 4.9-6.6 6.1-14 11.3-22 15.5-6.9 3.8-14.2 6.9-21.7 9.1a126 126 0 0 1-15 3.6c-2.9.5-3.1.4-4.4-2.1-1.6-2.9-3.5-5.6-5.5-8.3 1.8-.2 3.5-.2 5.3 0 5 .2 9.8-.7 14.6-1.5 8.4-1.4 16.6-4.1 24.2-8 5.8-2.9 11.1-6.7 15.8-11.1 4.1-3.9 8-7.8 11.1-12.5.1-.2.3-.4.6-.6zM221.4 287.2c-1.4 1.7-2.9 3.3-4.3 5.1-.6 1-1.9 1.4-3 .9-3.9-1.4-8-2.6-11.9-4.1-14.1-5.5-27.7-12.1-40.7-19.8-.4-.2-.7-.5-1.2-.8l3.9-5.7c.4-.5.7-.4 1.2-.1 2.3 1.7 4.7 3.4 7 5 13.5 9.4 29 15.7 45.2 18.3 1 .2 2 .3 3 .5.6 0 .7.3.8.7z" fill="#fff"></path>
    <path d="M181 213.6c-.9 1.4-.8 2.1.6 2.4 6.6 1.6 13 1.6 18.5-3.2 2.3-2.1 4.9-3.8 7.7-5.2 4.3-2.2 9.2-2.8 13.9-1.8 4.9 1.1 9.7 2.3 14.4 4.9-2.2 1.5-4.3 3-6.4 4.4-.5.3-1 .6-1.4 1.1-.3.4-.3.8-.1 1.2.2.5.8.7 1.3.5l1.5-.9c1.9-1.3 3.8-2.5 5.7-3.8 1.3-1.2 3.3-1.1 4.5.2-2 1.2-4.1 2-6 3.3-.6.4-1.1.7-1.6 1.1s-.8.9-.4 1.5c.3.5.9.6 1.4.3.1 0 .1-.1.2-.1l1.5-.9c3.4-2 7-3.7 10.7-4.8-1 2.3-2.4 3.7-4.8 3.8-.9.1-1.7.3-2.6.7-.5.2-.8.7-.6 1.3.1.5.7.8 1.2.7.6-.1 1.2-.6 1.9-.3.1.4-.2.7-.4.9-2 2.3-4 4.6-6.1 6.7-1.7 1.7-3.9 2.7-6.3 2.8-.4 0-.7.1-1.1.1-6.7-.3-13.2.6-19.8 1.6-4.5.7-9.1-.5-12.7-3.4l4.1-2.9.9-.6c.6-.4 1.4-.7 1-1.7-.3-.7-1.2-.8-2.3 0-1.5 1-2.9 2-4.4 3s-1.5 1-2.8-.1c-.4-.3-.8-.7-1.3-1.1 1.6-.8 3.2-.8 4.7-1.1.4-.1.9-.1 1.3-.2 1.1-.3 1.2-.7.6-2.1 0-.5.3-.6.6-.8.7-.3 1.6 0 2.4-.4-.6-.8-1.3-.7-2-.8-6.5-1-13-1.4-19.5-1.3-1.1 0-2.2.2-3.2-.6.4-.6 1-.4 1.6-.5 2.2-.1 2.2-.1 2.4-2.2 0-.3 0-.6.1-.9.3-.8.7-.8 1.1-.8z" fill="#e07476"></path>
    <path d="M246.3 194.4c2.3-.6 4.6-1.1 6.9-1.4.4-.1.9-.1 1.3 0s.8.5.8 1c0 .4-.2.7-.5.9-.5.3-1.1.5-1.7.5-7.1.8-12.9 4.3-18.2 8.7-1.8 1.5-2.1 1.6-4 .3-4.6-3-6.7-8.6-5.1-13.9 1.4-5.1 6.7-8 11.8-6.6.6.2 1.3.4 1.8.7 3.1 1.5 5.4 4.3 6.3 7.6.3.7.4 1.4.6 2.2z"></path>
    <path d="M175.9 217.5c3.2 0 6.3-.1 9.5 0 4.9.2 9.7.7 14.5 1.4.5.1 1 .2 1.5.4s.8.8.6 1.3c-.1.5-.6.8-1.1.7h-.1c-.9-.2-1.7-.3-2.6-.3-.9-.1-1.8.1-2.7.1-4.9 0-9.8-.7-14.7-1-2.9-.2-5.6.6-8.5.5-4.3.3-8.6 1.1-12.7 2.5-2.5.7-5 1.6-7.5 2.5-.8.3-1.8.8-2.2-.5s.6-1.5 1.5-1.8c7.2-2.8 14.7-4.6 22.4-5.3.7-.1 1.4-.2 2.1-.5z" fill="#020101"></path>
    <path d="M223.6 161.1c.3-1.3.4-2.8 1.8-3.3 1.7-.7 3.6-.3 4.9 1.1 1.5 1.6 2.2 3.7 1.9 5.9-.1.7-.3 1.5-.5 2.2l3 .9c.7.2 1.2.7 1 1.5s-1 .9-1.6.7c-1.6-.6-3.3-.7-5-.3-1.1.3-1.7-.7-1.1-1.8.3-.5.6-1 1-1.4 1.1-1.4 1.3-3.2.5-4.8-.4-1.5-2-2.3-3.4-1.9-.3.1-.6.2-.9.4-.5.2-.8.8-1.6.8z" fill="#040202"></path>
    <path d="M172.3 220.5c2.4-.5 4.8-.8 7.2-.7 5.4-.2 10.9.1 16.3.8.3.1.6.3.5.7-2.2.4-4.5.8-6.7 1.3-.9.2-1.9.1-2.7-.4-1-.5-2-1-3-1.3-.6-.2-1.3-.3-1.9-.4-.7-.1-1.4.1-1.5.9s.5 1 1.1 1.1l.6.3c-2.2-.1-2.2-.1-2.2-2.7-2.6.4-5.2.6-7.7.4z" fill="#da7072"></path>
    <path d="M179.7 169.8c1.2.2 2.3.8 3.2 1.7.4.4.7 1 .3 1.6-.3.5-1 .6-1.5.3h-.1c-.6-.3-1.1-.7-1.7-1-.4-.2-.9-.2-1.2.2-.3.3-.4.8-.2 1.2.3.9 1.1 1.6 2 1.8.7.2 1.3.6 1 1.4s-1.1.9-1.9.6c-1.8-.5-3.2-2-3.5-3.9-.3-1.8.8-3.5 2.6-3.8.3-.1.7-.1 1-.1z" fill="#060303"></path>
    <path d="M192.1 179.9c0 .6-.4 1-1 1h-.2c-3.1-.4-4.7 1.3-5.8 4-.2.6-.6 1.1-1.3.9s-.9-.9-.7-1.6c.6-3.1 4.2-5.9 7.2-5.5.9 0 1.6.3 1.8 1.2z" fill="#070303"></path>
    <path d="M224.1 172.9c2.2 0 4.4.7 6.1 2.1.6.3.8 1 .5 1.5 0 .1-.1.1-.1.2-.5.7-1.1.5-1.8.1s-1.1-.7-1.7-1c-1.4-.9-3.1-1-4.6-.3l-.6.3c-.6.2-1.2.3-1.6-.3s.1-1.3.6-1.6c1.1-.6 2.1-.9 3.2-1z" fill="#060303"></path>
    <path d="M263.4 494.7c-.6-.4-.4-1.1-.4-1.6.2-2.4.1-4.8-.1-7.3-.1-.5-.2-1.1.5-1.2s.8.6.9 1.1c.3 1.8.4 3.6.3 5.5-.1.9-.1 1.9-.2 2.9-.2.3-.6.5-1 .6z" fill="#140b0b"></path>
    <path d="M250.6 455.2c-2.1-.7-3.9-2.2-6.1-2.8-.8-.1-1.5-.5-2.1-1.1.4-1.3.9-2.6 1.3-4 .9-2.4.1-5.2-2.1-6.7-5.6-4.6-12-8-19-10-8-2.1-16.2-3.8-24.4-5.1-7.1-1-13.9-3.1-20.4-6.2-15.9-7.7-26.2-20.1-30.8-37.1-2-7.4-2.4-15.1-2.6-22.7-.1-3.1 0-6.2 0-9.3 0-1.6 0-1.7 1.5-1.7 10.7 0 21.5-.2 32.1 1.5.5 1.2 1.1 2.3 0 3.5-4.8 1.2-9.4 3.1-13.6 5.6-4.4 2.6-7.9 6.4-10.2 11-.6 1-1 2.1-.9 3.2.8 0 .9-.6 1.1-1.1 4.3-9.6 12.4-14.1 22-16.8.8-.4 1.6-.3 2.3.3.6.8.9 1.7 1 2.6 1 5 1.5 10 1.4 15.1-.3 3.7-.1 7.5.5 11.2.1.9.4 1.7.8 2.5.6 1.4 2.3 2.1 3.7 1.4.5-.2 1-.6 1.3-1.1.7-1 1.2-2.2 1.3-3.5.6-3.8.9-7.6 1-11.4 0-3.8.6-7.5 1.7-11.1.2-.9.6-1.7 1.1-2.3 1.2-.6 2 .1 2.8.7 7.1 5.4 10.7 12.7 11.4 21.5 0 1 0 1.9.1 2.9 0 .2.1.4.8.7.4-2.5.3-5-.1-7.5-1.6-7.5-5.1-13.9-11.4-18.5-.7-.5-1.4-1.1-2-1.7-.9-1.6-.4-2.8 1-3.8 5.3 1.2 10.5 2.8 15.7 4.4 9.6 2.9 19.4 4.8 29.2 6.6 7.8 1.5 15.6 3.1 23.4 4.3 7.6 1.1 15.3 2.2 23 2.7 6 .4 12.1-.3 18.1-.9 1.6-.3 3.3-.7 4.8-1.3.1.2.3.3.3.4.8 13.2-1.7 26.4-7.3 38.4-4 8.8-8.1 17.5-11.9 26.3-3.5 7.9-9.2 12.7-17.4 15-5.3 1.5-10.7 2.6-16.1 3.9-1.9.6-4.1 1.3-6.3 2zM299.8 251.7c2.9 1.5 5.6 3.2 8.1 5.2 2.6 2 5.3 4 7.8 6.1 7.7 6.5 15.9 12.4 24.5 17.7 1.3.6 2 2 1.7 3.4-.2 2.4-.2 4.9 0 7.3.1 5.7 0 11.3.1 17 .1 1.1-.6 2.1-1.7 2.3-3.7 1.1-7.5 1.5-11.3.9-3.6-.4-7.2-.6-10.8-.9-1-.1-1.6-.2-1.7-1.5-.1-6-2.1-11.7-3.8-17.4-2.3-8-5.2-15.8-8.6-23.4-1.9-4.1-2.7-8.5-3.5-12.9-.2-1.1-.5-2.2-.8-3.8z" fill="#fff"></path>
    <path d="M195.3 353.6c-.3 1.2-1.4 2.1-.8 3.5-.3.8-.8 1.5-1.3 2.1-1.8 4.6-2.7 9.5-2.7 14.4-.1 3.7-.4 7.4-.9 11-.2 1.2-.6 2.4-1.3 3.5-.7 1.2-2.1 1.9-3.6 1.7-1.4-.1-2.5-1.1-2.9-2.4-.7-2-1.1-4.1-1.1-6.3.1-3.2-.2-6.4 0-9.7.3-5.3-.7-10.5-2-15.6-.4-.7-.6-1.5-.6-2.3.7-1-.1-2.2.2-3.3.4-.7.5-1.6.2-2.4.9-2.2 1.7-4.3 3.7-5.8.2-.2.5-.3.7-.4.9.7.6 1.8.7 2.7.1 2-.1 4 .6 5.9-.9-2.9-.1-6-.7-8.9 2.4-1.1 4.9-2 7.6-.8.5 1.6-.6 2.9-.9 4.4-.3.9-.5 1.8-.6 2.8.5-1.3 1-2.7 1.4-4.1.3-.9.4-1.9 1.4-2.3 3.1 2 3.8 5.2 3.8 8.5 0 .6-.3 1.1.1 1.7-.7.4-1 1.3-1 2.1z" fill="#df7476"></path>
    <path d="M216.7 295.9c2.9-2.2 4.5-5.5 7.3-7.8 2.4 3.1 4.6 6.5 6.4 10 .2.4.3.6 0 1-2 1.9-3.9 4-6.5 5.1-1.4.6-1.5.6-2.3-.7-1.5-2.7-3.1-5.2-4.9-7.6z" fill="#feffff"></path>
    <path d="M211.9 332.3c4 1.6 8.1 2.7 12.4 3.3.7.1.8.5.8 1-.1 1.8-.3 3.6-.4 5.6-1.9-.2-3.8-.5-5.6-1.1-2.6-.9-5.1-1.9-7.6-3-.8-.3-1.2-.6-.8-1.6.4-1.4.8-2.7 1.2-4.2zM225.3 330.1c-.1 3.4-.1 3.4-3.4 2.8-2.8-.5-5.6-1.3-8.3-2.3-.8-.3-1-.6-.7-1.4.7-1.5.7-3.7 2-4.5s3 .6 4.5.9 3 .8 4.5 1c1.2.1 1.5.7 1.4 1.7v1.8z" fill="#fefefe"></path>
    <path d="M344.4 310.6c-.2-.7-.2-1.4-.1-2.2 0-6.5.1-13.1-.3-19.6-.1-2.7 0-5.4.3-8.2 0-.7.1-1.8.9-1.8 1 0 .8 1.1.8 1.7.2 7.2 1.2 14.4.5 21.6-.3 2.2-.5 4.4-.5 6.6.1 1.2-.3 2-1.6 1.9zM210.6 340c4.1 2 8.4 3.5 12.9 4.5.3.7-.3.8-.6 1.1-2.3 1.6-4.6 3.1-6.9 4.6-1.3.8-1.3.8-1.9-.5-1.3-2.8-2.5-5.6-3.4-8.6-.2-.3-.2-.7-.1-1.1zM215.6 322.2c.6-1.6 1.1-3 1.6-4.4.1-.6.7-1.1 1.3-1 .1 0 .2.1.3.1.5.1 1 .2 1.5.4 1.6.5 3.3.5 4.8 1.4.3.2.3 3.8 0 5.8-3.2-.5-6.4-1.3-9.5-2.3zM225 316.1l-6.6-1.5c.9-2.4 1.8-4.6 2.6-6.9.4-1.4 1.5-.9 2.3-1 1.1-.2 1 .7 1 1.3.5 2.7.7 5.4.7 8.1z" fill="#fff"></path>
    <path d="M246.9 260.4c-3.4-4.2-7-8-12.3-9.6-5-1.5-9.9-2.8-15.2-2.2s-10.3 2-14.5 5.4c-1.1-.9-2-1.9-2.9-3-4.3-5-8.4-10.3-11.2-16.3-1-2.1-1-2.1.8-3.4.3-.2.6-.4.9-.7.8-.8 1.5-.6 2.3 0 2.4 1.8 5.1 2.9 8.1 3.4 1.3.2 2.7.2 4 .2 1 0 1.4.4 1.6 1.3.3 1.3.6 2.6 1.1 3.8.9 2.6 2.4 3.4 5.1 3.1.8-.1 1.6-.2 2.4-.4.6-.2 1.3-.3 1.9-.3.7.2.4 1.1.8 1.7.6 1 1.6 1.6 2.7 1.6 3.2.2 6.5 0 9.6-.8 1.7-.4 2.3-1.2 2.3-3 .1-2.6 0-5.3-.4-7.9-.3-1.1.1-2.2 1.1-2.8 3.9-2.8 6.9-6.6 9.9-10.4.8-1.2 2.1-1.8 3.6-1.7 1.5 0 1.5 0 1.6 1.4.2 4.2.3 8.4.6 12.6.2 5.9.1 11.8-.5 17.6-.4 4-1.5 7.4-3.4 10.4z" fill="#e07476"></path>
    <path d="M238.2 267.8c.5-2.6.6-5.3.2-8-.3-2-.7-2.5-2.8-2.6s-4.1-.3-6.2-.4c-2.6-.1-3.3.5-3.2 3.2.1 2.4.1 4.7 0 7.1-.2 1.8-.3 1.9-2.1 1.4-4.2-1.1-8-3.1-11.2-5.9-2-1.7-3.9-3.6-5.6-5.6-1.1-1.3-1.1-1.3.3-2.3 3.4-2.1 7.2-3.4 11.2-3.7 6-.7 11.7.7 17.2 2.9 2.4 1.1 4.6 2.8 6.3 4.8.9 1 1.7 2 2.6 3 .4.4.5 1 .1 1.4l-.1.1c-1.8 2.1-3.6 4-6.7 4.6z" fill="#e07476"></path>
    <path d="M202.5 207.9c-.5-.9-.8-1.6-1.2-2.2-.9-1.6-2.3-2.8-3.9-3.4-3.3-1.2-6.2 1-5.8 4.6.2 1.8 1 3.6 2.2 4.9.4.4 1 .7 1.1 1.3-.5.7-1.1.2-1.6.1-5.2-1.8-8.3-7.1-7.2-12.5 1-4.2 4.3-6.4 8.6-5.7 5.2.8 9.2 7.1 7.8 12.9zM220.5 232.8c1.9-.2 3.8-.3 5.6-.2 1.5 0 2.9-.1 4.4-.2.7 0 1 .2 1.1.9.3 2.3.4 4.7.4 7 0 1.6-.1 1.9-1.6 2.1-2.4.5-4.8.7-7.2.6-.8 0-1.7-.1-1.8-1.2-.1-3-.4-6-.9-9zM228.6 259.2c2.2.1 4.2.3 6.1.3 1.1 0 1.3.4 1.4 1.4.1 2.2 0 4.4-.2 6.6.1.7-.5 1.4-1.2 1.4-2.1.4-4.3.5-6.4.2.1-1.8.3-3.4.3-5.1v-4.8z" fill="#fefefe"></path>
    <path d="M210.3 234c2.3-.3 4.4-.6 6.4-1 .9-.1 1.4.1 1.5 1 .3 1.4.5 2.9.6 4.4 0 .7-.2 1.1-1 1.2-1.4.2-2.7.5-4.1.7-1 .2-2-.4-2.2-1.4-.5-1.6-1-3.3-1.2-4.9z" fill="#fff"></path>
    <path d="M191.6 228.4c-.8.8-1.7 1.4-2.7 1.9-.7-1.3-1.3-2.6-1.8-4-.2-.3-.1-.6.1-.8.2-.2.6-.2.8 0 1.2 1 2.3 1.9 3.6 2.9z" fill="#d36e70"></path>
    <path d="M248.3 216.4c.2-.7.6-1.3 1.3-1.7.2 1.6.2 1.6-1.3 1.7z" fill="#d47072"></path>
    <path d="m196.3 221.4-.5-.7c.8-.2 1.6-.1 2.3.3l-.6.5-1.2-.1z" fill="#8d6465"></path>
    <path d="M53.2 81.5c.8 1.1 1.4 2.1 2 3.1 4.3 7 9.5 13.3 13.9 20.1s9.3 13.1 14.2 19.4c1 1.3 2 2.7 3.1 4 .7.6.7 1.7.1 2.3-1 1.6-1.8 3.4-2.3 5.2-.5 1-.1 2.2.9 2.8 1.6 1.3 3.1 2.7 4.5 4.2 2.2 2.3 4.2 4.8 6.3 7.1.5.4.6 1.2.2 1.7 0 .1-.1.1-.1.2-5.5 7.2-10 15.1-13.4 23.5-1 2.4-.8 2.3-3.1 1.2-6.6-3.2-12.8-7.3-18.4-12.1-4.3-3.7-8.8-7.1-13.6-10.1-6.6-4.1-13.2-8.1-19.6-12.3-.9-.6-1.5-1.1-1.4-2.4 1.2-11 3.2-21.8 8.5-31.8 4-7.7 8.7-14.9 14.2-21.5 1.4-1.4 2.6-2.9 4-4.6z" fill="#ffd574"></path>
    <path d="M131.3 98.3c1.9 4.4 3.7 8.5 5.5 12.6 2.9 6.5 6.9 12.3 10.1 18.6 2.1 4 3.9 8.3 6.8 11.8.5.6.5 1.5-.1 2-.3.4-.7.8-1.1 1.1-5.5 5.3-11.1 10.5-17.4 14.9-4.6 3.1-8.7 6.8-12.2 11.1-.3.3-.6.6-.9 1-.6.8-1.8.9-2.6.3-1.1-.7-2.1-1.6-3-2.6-3-3.4-5.9-6.8-8.9-10.1-5.3-5.9-10.7-11.8-16.1-17.6-1.2-1.3-2.6-2.6-4-3.8-.9-.6-1.2-1.8-.6-2.7 1.2-2.8 2.8-5.4 4.6-7.8 7.4-10.3 17.3-17.5 28.6-23 3.8-1.6 7.8-3 11.3-5.8z" fill="#fff"></path>
    <path d="M138.5 108.9c-1.6-3.2-2.8-6.4-4.2-9.6-.4-.9-.7-1.8-1.1-2.6-.7-1.3-1.4-1.5-2.7-.8-.1 0-.1.1-.2.1-3.4 2.9-7.6 4.4-11.6 6.3-3.8 1.9-7.4 3.9-10.9 6.3-1.3.8-1.3.8-2.2-.4-6.1-8.2-13.6-15-21.3-21.7-.7-.6-1.4-1.3-2.1-1.9s-.8-1.4 0-2.2c3.3-3.6 6.4-7.3 9.7-10.9 5.1-5.4 10.4-10.6 15.6-16 1.2-1.1 2.4-2.1 3.8-3 2.1-1.4 4.8-.9 6.3 1 .8 1 1.5 2.2 2 3.4 5.3 12.4 12.5 23.9 21.5 34 1.9 2.1 3.7 4.4 5.4 6.7.7.7.7 1.9-.1 2.6l-.1.1c-2.5 2.9-5 5.7-7.8 8.6zM122.7 237.6c-.7-1.7-.2-2.4 1-3 5.6-2.8 10.6-6.6 15.5-10.4 1.2-1 2.7-1.7 4.2-1.9-6.3 5.8-13.8 10-20.7 15.3zM78.5 190.4c.4 0 .8.3 1 .7l.9 1.8c3.1 6.5 5.5 13.3 7.4 20.3 2.9 9.9 7 19.4 12.2 28.3.5.8.9 1.7 1.4 2.5.7 1 .5 2.4-.3 3.3-.7.9-1.6 1.8-2.6 2.4-5.9 4.1-11.8 8.3-17.7 12.4-4.3 3.2-8.5 6.6-12.5 10.2-2.7 2.3-5.2 4.8-8 6.9-2.4 1.8-1.7 1.8-3.7-.2-4.2-4.1-8-8.5-11.4-13.1-6.3-8.5-9.8-18.1-11.8-28.3-1.2-6.2 0-11.9 4.6-16.8 4.5-4.6 9.3-8.9 14.3-12.8 7.5-5.9 15.4-11.4 23.6-16.2.7-.4 1.4-.8 2.1-1.1.3-.2.4-.3.5-.3z" fill="#fff"></path>
    <path d="M185.5 111.4c-3.5-.2-8.3-.4-13.2-.9-.5 0-1-.2-1.5-.3-1.1-.1-1.4-.8-1.4-1.8-.1-6.1-1.2-12.2-2.1-18.2-1.1-7.1-2.2-14.1-2-21.3v-2.2c-.1-1.2.7-2.3 1.9-2.6 3.4-1.3 7-2.3 10.6-3 8-1.6 16-3.4 24.1-4.2 4-.4 8.1-.8 12.1-1 2.5-.2 2.7.2 2.6 2.6-.1 5.2-.7 10.4-1.1 15.6-.6 7.1-1.4 14.2-2 21.3-.3 3.5-.6 7-.9 10.6 0 1.4-.9 2.6-2.2 3-3 1.1-6.1 1.8-9.2 2-5.2.5-10.4.6-15.7.4z" fill="#ffd574"></path>
    <path d="M183.5 341.2c.5 0 .8.1.8.8 0 3 .1 6 .5 8.9.1.4.1 1-.4 1.1s-.8-.4-.9-1c-.5-3.1-.6-6.2-.5-9.4l.5-.4z" fill="#0d0707"></path>
    <path d="M192.3 341.1c-.9 2.3-1.6 4.7-2.2 7.1-.1.5-.2.9-.8.9s-.7-.7-.6-1.2c.6-2.6 1.4-5.1 2.3-7.6.5.1 1 .4 1.3.8z" fill="#12090a"></path>
    <path d="M216.7 207.2h1.5c1.8 0 3.3 1.3 3.6 3 .9 3.8.2 7.7-2 10.9-1.3 2-2.7 2.4-4.9 1.3-2.4-1.2-4.8-2.5-7-4.1-4.1-3-3.8-6.7.8-9 2.4-1.3 5.2-2.1 8-2.1z"></path>
    <path d="M228.2 196.9c-.7-1.9-.7-4.1 0-6 1.2-3.8 5.2-5.9 9-4.7.4.1.8.3 1.2.5 3 1.5 5 4.3 5.4 7.6.2.6-.1 1.3-.7 1.6-.8.4-1.6.8-2.3 1.3-.8-.3-.8-1-1.1-1.6-.9-1.6-2.2-2.8-3.9-3.5-2.5-1.1-5.5 0-6.6 2.5-.1.2-.1.3-.2.5-.2.6-.4 1.1-.6 1.7 0 0-.1.1-.2.1z" fill="#fefefe"></path>
    <path d="M193.1 359.2c.3-.8-.2-2.1 1.3-2.1 7.7 4.9 12.1 12 13.9 20.8.4 2.2.5 4.4.3 6.6 0 .2 0 .4-.1.6-.1.6-.5 1.1-1.2 1-.6 0-1-.4-1-1v-1.8c-.2-10-4.1-18-12.4-23.8-.2 0-.5-.1-.8-.3z" fill="#020202"></path>
    <path d="M178.1 353.5c1 .6.7 1.5.6 2.3-6.5 1.1-12.5 4-17.5 8.3-2.8 2.4-4.6 5.5-6.1 8.8-.4.8-.5 1.9-1.8 1.5-.8-.2-.8-1-.2-2.5 2.4-5.9 6.7-10.7 12.2-13.7 4-2.2 8.3-3.9 12.8-4.7z" fill="#030202"></path>
    <path d="M211 211.9c.2.1.4.1.4.2.2 1 .4 1.9.5 2.9 0 .4-.5.5-.9.3-.9-.8-1.1-2.1-.6-3.2.2-.1.5-.1.6-.2z" fill="#fff"></path>
  </g>
</svg>
