<svg xmlns="http://www.w3.org/2000/svg" viewBox="0 0 426.899 272.848" id="helping-others">
  <defs>
    <clipPath id="clip-path">
      <path fill="none" d="M34.34908,131.67589c3.94287,86.07032,121.15772,159.148,159.49585,137.249,21.25489-12.14063,3.6366-46.252,29.79895-71.05176,41.796-39.61963,120.2096,15.73291,165.38782-24.03906,21.33655-18.78321,26.403-50.98633,22.61121-72.89014C400.14376,34.51574,295.24093-3.60633,210.63253.26964,110.16006,4.87218,31.23531,63.7047,34.34908,131.67589Z"></path>
    </clipPath>
  </defs>
  <g id="Layer_2">
    <g id="Layer_1-2">
      <path fill="#fff4f2" d="M34.34908,131.67589c3.94287,86.07032,121.15772,159.148,159.49585,137.249,21.25489-12.14063,3.6366-46.252,29.79895-71.05176,41.796-39.61963,120.2096,15.73291,165.38782-24.03906,21.33655-18.78321,26.403-50.98633,22.61121-72.89014C400.14376,34.51574,295.24093-3.60633,210.63253.26964,110.16006,4.87218,31.23531,63.7047,34.34908,131.67589Z"></path>
      <g clip-path="url(#clip-path)">
        <path fill="#eca085" d="M204.74066,165.01313c-1.64824.17887-58.24309,4.04872-58.24309,4.04872s-13.54781,1.90633-19.36151,9.13287a4.56941,4.56941,0,0,0,1.26819,6.70582l26.86557,16.59291a7.74052,7.74052,0,0,1,2.09257,11.27691,7.95393,7.95393,0,0,1-10.50282,1.71924l-27.96335-17.26451s-13.79708,2.71922-40.57616-21.99135c-.09686-.08954-.19784-.19035-.3023-.28334l-.48827.12687-.00761-.00345L24.98942,188.28639,0,151.52538l65.34452-17.06179.54006-.14008s.07377-.12229.22976-.34515c1.74579-2.41641,13.78373-17.16849,52.694-24.84677l6.984-2.00328c10.60971-11.35807,30.67933-26.80541,33.50573-29.09857,2.33013-1.88576,9.33031-1.90248,11.21192.41671a5.42612,5.42612,0,0,1-.79976,7.62883c-4.52234,3.66936-9.82537,8.4142-14.984,13.32562-5.162,4.91886-10.17943,10.00432-14.13024,14.3538,0,0-2.21156,3.525,2.37468,3.98134l49.4128-19.00213c2.74119-1.19515,7.24724-.19786,8.45364,2.53936,1.181,2.753-1.00174,9.28788-3.74288,10.48305l-44.77113,20.32714-.00336.00743a2.47584,2.47584,0,0,0,.79167,3.12652l56.23638-11.309c2.94159-.54541,6.4171,3.69632,6.96272,6.63794s-3.09775,7.52262-6.04287,8.07583L156.30007,150.648a.25977.25977,0,0,0-.03924.04621,2.07072,2.07072,0,0,0,1.52423,3.43123c18.83259.30485,44.83872-2.29709,46.78238-2.07626,3.82765.45177,5.64059,1.85068,5.963,4.81958C210.83838,159.84938,207.71706,164.69427,204.74066,165.01313Z"></path>
        <path fill="#b86a4b" d="M69.69482 148.22075a.42423.42423 0 0 1-.53864.17742c-.00761-.00345-.02283-.01035-.02708-.02122a9.47771 9.47771 0 0 1-4.809-5.70793 12.24422 12.24422 0 0 1 1.02438-8.20543l.54006-.14008s.07377-.12229.22976-.34515a.41315.41315 0 0 1 .1366.54788c-.19579.35115-4.72542 8.62681 3.28021 13.12541A.415.415 0 0 1 69.69482 148.22075ZM78.33456 175.222c-.00353.00779-.00353.00779-.0145.01177-.09686-.08954-.19784-.19035-.3023-.28334l-.48827.12687-.00761-.00345c-9.11817-8.00905-5.98931-16.6721-5.95145-16.75563a.414.414 0 1 1 .77338.29546c-.12523.337-2.98753 8.35121 5.94574 16.02A.41136.41136 0 0 1 78.33456 175.222ZM140.44 150.24532c-17.44525-7.90635-24.32752-30.94328-24.40354-31.205a.41742.41742 0 1 1 .80176-.2327c.08441.29065 8.69257 29.07332 30.97424 32.82885a.4174.4174 0 1 1-.1386.82322A29.227 29.227 0 0 1 140.44 150.24532ZM83.31676 155.9458a.41708.41708 0 0 1-.01736-.7516c.31168-.15946 31.39561-15.7164 50.17 5.61117a.41757.41757 0 0 1-.62688.5518c-18.34691-20.851-48.8561-5.57683-49.16312-5.41974A.41606.41606 0 0 1 83.31676 155.9458Z"></path>
        <path fill="#633322" d="M221.91127,78.49715c1.64389-.21515,58.13968-5.33167,58.13968-5.33167s13.5025-2.20452,19.15547-9.55746a4.56941,4.56941,0,0,0-1.4157-6.67624L270.5659,40.93514a7.74051,7.74051,0,0,1-2.34066-11.228,7.95393,7.95393,0,0,1,10.46237-1.95036l28.33714,16.64388a79.48954,79.48954,0,0,1,41.05109,21.09153c.09445.09208.202.18594.30847.2766l.48535-.1376.00769.00328L401.10578,51.267l25.79372,36.2012s-65.56042,18.774-65.71146,19.00021c-1.69209,2.45431-26.68754,16.93881-52.13342,26.00234l-6.93819,2.15675c-10.35675,11.58921-30.081,27.47521-32.85612,29.83012-2.288,1.93667-9.28611,2.1077-11.21839-.16944a5.42614,5.42614,0,0,1,.63139-7.64461c4.44036-3.76817,9.6375-8.62875,14.68657-13.6527,5.05227-5.03145,9.95642-10.22629,13.81039-14.6618,0,0,2.13331-3.57286-2.46187-3.928l-48.98191,20.08678c-2.71417,1.25529-7.24111.35757-8.50756-2.35239-1.24136-2.72628.79675-9.3077,3.51088-10.563L275.042,110.26331l.0032-.0075a2.47588,2.47588,0,0,0-.86041-3.10832l-55.97342,12.54592c-2.92884.61013-6.497-3.554-7.10736-6.48284s2.93117-7.58907,5.86338-8.20707L270.65676,91.791a.25975.25975,0,0,0,.03821-.04706,2.07072,2.07072,0,0,0-1.5995-3.3968c-18.83474.11037-44.77719,3.285-46.72524,3.107-3.83668-.36728-5.68-1.72588-6.06782-4.68695C215.92886,83.79407,218.94262,78.88156,221.91127,78.49715Z"></path>
        <path fill="#471301" d="M273.9668 28.26791s-5.47536 3.20256-5.22679 7.529C268.74 35.79686 287.64939 43.212 273.9668 28.26791ZM220.86939 80.41885s-3.32017 5.40484-1.0622 9.10363C219.80719 89.52248 239.9797 87.15205 220.86939 80.41885ZM215.15555 108.07123s-2.29843 5.91212.58552 9.14667C215.74107 117.2179 235.16281 111.27273 215.15555 108.07123ZM229.50955 135.35027s.01073 6.34317 3.874 8.30639C233.38359 143.65666 249.31 131.05114 229.50955 135.35027ZM258.84407 157.78871s1.64981 6.12487 5.88927 7.02289C264.73334 164.8116 276.86061 148.51808 258.84407 157.78871ZM282.07134 84.91106a.44772.44772 0 0 1-.075-.04384.4172.4172 0 0 1-.0894-.58377c1.38342-1.88344 1.88887-3.58126 1.50243-5.047a4.94943 4.94943 0 0 0-2.54141-2.8997l-.00037-.00016-.00149-.00068a.41738.41738 0 0 1 .34087-.762 5.6419 5.6419 0 0 1 3.00714 3.441c.4583 1.7238-.09195 3.66266-1.63455 5.763A.41732.41732 0 0 1 282.07134 84.91106ZM279.30169 102.86392a.44772.44772 0 0 1-.075-.04384.41721.41721 0 0 1-.0894-.58377c1.38342-1.88344 1.88887-3.58126 1.50243-5.047a5.02268 5.02268 0 0 0-2.54178-2.89986l-.00149-.00067a.41738.41738 0 0 1 .34087-.762 5.67269 5.67269 0 0 1 3.00714 3.441c.4583 1.72381-.09194 3.66266-1.63454 5.763A.41734.41734 0 0 1 279.30169 102.86392ZM286.77917 117.5376a.418.418 0 0 1-.22509-.50654c.70854-2.22689.64428-3.99765-.19088-5.26219a4.94822 4.94822 0 0 0-3.33568-1.93508.41737.41737 0 0 1 .07774-.83111 5.71889 5.71889 0 0 1 3.94967 2.29837c.98554 1.48663 1.08458 3.49958.29463 5.98313a.41685.41685 0 0 1-.52413.27081A.33721.33721 0 0 1 286.77917 117.5376ZM298.915 131.65636a.41668.41668 0 0 1-.23584-.29125c-.5-2.28239-1.44091-3.78368-2.79654-4.4616a4.78154 4.78154 0 0 0-3.85608-.00778.41736.41736 0 0 1-.34852-.75848 5.68785 5.68785 0 0 1 4.57.01538c1.59685.79441 2.68881 2.48857 3.24669 5.03435a.41675.41675 0 0 1-.31852.49645A.41213.41213 0 0 1 298.915 131.65636Z"></path>
      </g>
    </g>
  </g>
</svg>
